# Blender 5.1.0
# www.blender.org
mtllib Untitled3.mtl
o Cylinder
v 0.000000 -1.500000 -1.200000
v 0.000000 1.500000 -1.200000
v 0.848528 -1.500000 -0.848528
v 0.848528 1.500000 -0.848528
v 1.200000 -1.500000 0.000000
v 1.200000 1.500000 0.000000
v 0.848528 -1.500000 0.848528
v 0.848528 1.500000 0.848528
v 0.000000 -1.500000 1.200000
v 0.000000 1.500000 1.200000
v -0.848528 -1.500000 0.848528
v -0.848528 1.500000 0.848528
v -1.200000 -1.500000 0.000000
v -1.200000 1.500000 0.000000
v -0.848528 -1.500000 -0.848528
v -0.848528 1.500000 -0.848528
vn 0.3827 -0.0000 -0.9239
vn 0.9239 -0.0000 -0.3827
vn 0.9239 -0.0000 0.3827
vn 0.3827 -0.0000 0.9239
vn -0.3827 -0.0000 0.9239
vn -0.9239 -0.0000 0.3827
vn -0.0000 1.0000 -0.0000
vn -0.9239 -0.0000 -0.3827
vn -0.3827 -0.0000 -0.9239
vn -0.0000 -1.0000 -0.0000
vt 0.739068 -0.001280
vt 0.739068 1.008023
vt 0.995725 1.008023
vt 0.995725 -0.001280
vt 0.426777 0.926777
vt 0.250000 1.000000
vt 0.073223 0.926777
vt 0.000000 0.750000
vt 0.073223 0.573223
vt 0.250000 0.500000
vt 0.426777 0.573223
vt 0.500000 0.750000
s 0
usemtl Material.001
f 1/1/1 2/2/1 4/3/1 3/4/1
f 3/4/2 4/3/2 6/2/2 5/1/2
f 5/4/3 6/3/3 8/2/3 7/1/3
f 7/4/4 8/3/4 10/2/4 9/1/4
f 9/4/5 10/3/5 12/2/5 11/1/5
f 11/1/6 12/2/6 14/3/6 13/4/6
f 4/5/7 2/6/7 16/7/7 14/8/7 12/9/7 10/10/7 8/11/7 6/12/7
f 13/1/8 14/2/8 16/3/8 15/4/8
f 15/1/9 16/2/9 2/3/9 1/4/9
f 1/6/10 3/5/10 5/12/10 7/11/10 9/10/10 11/9/10 13/8/10 15/7/10
